<svg width="286" height="199" viewBox="0 0 286 199" version="1.1" xmlns="http://www.w3.org/2000/svg" xmlns:xlink="http://www.w3.org/1999/xlink">
<title>ASW Logo</title>
<desc>Created using Figma</desc>
<g id="Canvas" transform="translate(157 269)">
<clipPath id="clip-0" clip-rule="evenodd">
<path d="M -157 -269L 129 -269L 129 -70L -157 -70L -157 -269Z" fill="#FFFFFF"/>
</clipPath>
<g id="Frame" clip-path="url(#clip-0)">
<!-- <g id="Vector 2">
<use xlink:href="#path0_fill" transform="translate(-147 -241)" fill="url(#paint0_linear)"/>
</g> -->
<g id="All-Seeing">
<use xlink:href="#path1_fill" transform="translate(-124 -220)" fill="#4838A6"/>
</g>
<g id="Of Magical Destiny">
<use xlink:href="#path2_fill" transform="translate(-44 -124)" fill="#4838A6"/>
</g>
<g id="Wizards">
<use xlink:href="#path3_fill" transform="translate(-124 -200)" fill="#1E174A"/>
</g>
<g id="Ellipse">
<use xlink:href="#path4_fill" transform="matrix(0.962258 0.272139 -0.272139 0.962258 -2.74426 -235.178)" fill="#4838A6"/>
<mask id="mask0_outline_ins">
<use xlink:href="#path4_fill" fill="white" transform="matrix(0.962258 0.272139 -0.272139 0.962258 -2.74426 -235.178)"/>
</mask>
<g mask="url(#mask0_outline_ins)">
<use xlink:href="#path5_stroke_2x" transform="matrix(0.962258 0.272139 -0.272139 0.962258 -2.74426 -235.178)" fill="#1E174A"/>
</g>
</g>
<g id="Vector">
<use xlink:href="#path6_fill" transform="translate(14.9926 -259)" fill="#4838A6"/>
<use xlink:href="#path7_stroke" transform="translate(14.9926 -259)" fill="#1E174A"/>
</g>
<g id="Star">
<use xlink:href="#path8_fill" transform="translate(41 -246)" fill="#F2F2F2"/>
</g>
<g id="Star">
<use xlink:href="#path8_fill" transform="translate(27 -220)" fill="#F2F2F2"/>
</g>
<g id="Star">
<use xlink:href="#path8_fill" transform="translate(28 -236)" fill="#F2F2F2"/>
</g>
</g>
</g>
<defs>
<linearGradient id="paint0_linear" x1="0" y1="0" x2="1" y2="0" gradientUnits="userSpaceOnUse" gradientTransform="matrix(1.61653e-14 160 -264 9.79717e-15 264 -9.79717e-15)">
<stop offset="0" stop-color="#F2C141"/>
<stop offset="1" stop-color="#F0D181"/>
</linearGradient>
<path id="path0_fill" d="M 262.484 36.0563C 213.355 -1.69014 69.3565 29.2958 3.28644 0C 12.3216 68.169 -7.4429 73.8028 3.28644 138.028C 33.7803 156.62 166.485 134.648 259.661 160C 272.084 109.296 252.884 81.1268 262.484 36.0563Z"/>
<path id="path1_fill" d="M 9.096 13.072C 9.352 13.168 9.64 13.304 9.96 13.48C 9.48 11.752 9.112 10.28 8.856 9.064C 8.232 10.312 7.408 11.832 6.384 13.624C 6.304 13.8 6.168 14.048 5.976 14.368C 6.616 13.376 7.344 12.88 8.16 12.88C 8.48 12.88 8.792 12.944 9.096 13.072ZM 12.936 9.664C 13.592 11.888 14.368 13.96 15.264 15.88L 15.528 16.408C 15.752 16.792 15.92 17.12 16.032 17.392C 16.144 17.648 16.2 17.912 16.2 18.184C 16.2 18.6 16.024 19.032 15.672 19.48C 15.32 19.912 14.936 20.232 14.52 20.44C 14.264 20.584 13.992 20.656 13.704 20.656C 13.224 20.656 12.744 20.512 12.264 20.224C 11.8 19.92 11.24 19.488 10.584 18.928C 10.12 18.544 9.768 18.272 9.528 18.112C 9.368 18 9.032 17.824 8.52 17.584C 7.624 17.136 6.928 16.736 6.432 16.384C 5.952 16.032 5.712 15.616 5.712 15.136C 5.712 15.008 5.768 14.816 5.88 14.56C 5.576 15.104 5.152 15.936 4.608 17.056C 3.936 18.416 3.552 19.176 3.456 19.336C 3.264 19.688 2.952 20.08 2.52 20.512C 2.088 20.928 1.688 21.136 1.32 21.136C 1.128 21.136 0.96 21.064 0.816 20.92C 0.704 20.808 0.648 20.632 0.648 20.392C 0.648 19.72 1.16 18.528 2.184 16.816C 2.248 16.688 2.352 16.504 2.496 16.264L 3.024 15.256C 4.112 13.208 4.904 11.664 5.4 10.624C 5.688 10.016 6.104 9.104 6.648 7.888L 7.512 5.944C 7.864 5.192 8.216 4.568 8.568 4.072C 8.92 3.56 9.36 3.168 9.888 2.896C 10.16 2.752 10.416 2.68 10.656 2.68C 10.976 2.68 11.208 2.832 11.352 3.136C 11.496 3.424 11.624 3.856 11.736 4.432C 12.024 6.08 12.424 7.824 12.936 9.664ZM 19.4331 2.128C 19.4651 1.824 19.7211 1.552 20.2011 1.312C 20.6811 1.056 21.1371 0.928 21.5691 0.928C 22.0811 0.928 22.3291 1.12 22.3131 1.504C 22.0571 4.368 21.6331 8.32 21.0411 13.36C 20.6571 16.8 20.4091 19.032 20.2971 20.056C 20.2651 20.392 20.0091 20.696 19.5291 20.968C 19.0651 21.224 18.6091 21.352 18.1611 21.352C 17.5371 21.352 17.2491 21.12 17.2971 20.656C 17.8571 15.152 18.5691 8.976 19.4331 2.128ZM 25.1752 2.128C 25.2072 1.824 25.4632 1.552 25.9432 1.312C 26.4232 1.056 26.8793 0.928 27.3113 0.928C 27.8233 0.928 28.0712 1.12 28.0553 1.504C 27.7993 4.368 27.3753 8.32 26.7833 13.36C 26.3993 16.8 26.1513 19.032 26.0392 20.056C 26.0072 20.392 25.7513 20.696 25.2713 20.968C 24.8073 21.224 24.3513 21.352 23.9032 21.352C 23.2793 21.352 22.9913 21.12 23.0392 20.656C 23.5992 15.152 24.3112 8.976 25.1752 2.128ZM 28.3734 14.008C 27.9734 13.944 27.7734 13.808 27.7734 13.6C 27.7734 13.424 27.9254 13.216 28.2294 12.976C 28.5334 12.736 28.8774 12.544 29.2614 12.4C 29.6454 12.24 29.9574 12.176 30.1974 12.208C 31.1574 12.352 32.0934 12.424 33.0054 12.424C 34.0934 12.424 35.2054 12.328 36.3414 12.136C 36.6774 12.088 36.8934 12.064 36.9894 12.064C 37.4854 12.064 37.7414 12.248 37.7574 12.616C 37.7734 12.904 37.5734 13.16 37.1574 13.384C 36.7574 13.608 36.3814 13.752 36.0294 13.816C 34.7334 14.136 33.3254 14.296 31.8054 14.296C 30.6374 14.296 29.4934 14.2 28.3734 14.008ZM 50.7418 16.624C 50.8218 16.72 51.0058 16.928 51.2938 17.248C 51.5978 17.568 51.8378 17.896 52.0138 18.232C 52.2058 18.552 52.3018 18.864 52.3018 19.168C 52.3018 19.552 52.1578 19.912 51.8698 20.248C 51.5178 20.68 51.0858 20.896 50.5738 20.896C 50.3498 20.896 50.1018 20.864 49.8298 20.8C 49.5578 20.736 49.3818 20.696 49.3018 20.68C 48.0378 20.424 46.5658 20.296 44.8858 20.296C 43.5898 20.296 42.2138 20.36 40.7578 20.488C 40.6298 20.504 40.4458 20.52 40.2058 20.536C 39.9658 20.552 39.7498 20.56 39.5578 20.56C 38.9818 20.56 38.5178 20.472 38.1658 20.296C 37.8298 20.104 37.6618 19.76 37.6618 19.264C 37.6618 18.976 37.7178 18.672 37.8298 18.352C 37.9418 18.016 38.1098 17.616 38.3338 17.152L 38.5498 16.648C 38.7898 16.056 39.0538 15.608 39.3418 15.304C 39.6298 14.984 40.0378 14.824 40.5658 14.824C 40.9978 14.824 41.3338 14.968 41.5738 15.256C 41.8298 15.528 41.9578 15.872 41.9578 16.288C 41.9578 16.576 41.8858 16.864 41.7418 17.152C 42.7498 17.088 43.8938 17.056 45.1738 17.056C 45.9258 17.056 46.4938 17.064 46.8778 17.08C 45.4058 15.224 44.3098 13.824 43.5898 12.88L 41.9338 10.792C 41.6778 10.472 41.4618 10.224 41.2858 10.048C 40.6938 9.36 40.2458 8.776 39.9418 8.296C 39.6378 7.8 39.4858 7.296 39.4858 6.784C 39.4858 6.304 39.6538 5.92 39.9898 5.632C 40.3418 5.328 40.7498 5.104 41.2138 4.96C 41.6938 4.8 42.2938 4.648 43.0138 4.504L 44.0218 4.288C 45.2858 3.968 46.5898 3.68 47.9338 3.424C 48.0458 3.408 48.2698 3.368 48.6058 3.304C 49.1498 3.16 49.6298 3.088 50.0458 3.088C 50.5738 3.088 50.9738 3.232 51.2458 3.52C 51.5338 3.824 51.6778 4.136 51.6778 4.456C 51.6778 4.76 51.5818 5.064 51.3898 5.368C 51.2138 5.672 50.9258 6.072 50.5258 6.568C 50.0458 7.144 49.7418 7.568 49.6138 7.84C 49.4058 8.288 49.1818 8.664 48.9418 8.968C 48.7178 9.272 48.4618 9.424 48.1738 9.424C 47.9658 9.424 47.7578 9.344 47.5498 9.184C 47.3258 9.008 47.2138 8.768 47.2138 8.464C 47.2138 8.24 47.2618 8.008 47.3578 7.768C 47.4698 7.512 47.5738 7.28 47.6698 7.072C 47.7818 6.864 47.8538 6.736 47.8858 6.688C 47.0698 6.832 45.8618 7.112 44.2618 7.528C 44.0698 7.592 43.6778 7.696 43.0858 7.84L 45.9658 11.152C 48.4298 13.952 50.0218 15.776 50.7418 16.624ZM 63.4629 18.616C 63.7029 18.696 63.8229 18.84 63.8229 19.048C 63.8229 19.304 63.6709 19.584 63.3669 19.888C 63.0309 20.224 62.5989 20.392 62.0709 20.392C 61.8149 20.392 61.5989 20.36 61.4229 20.296C 60.5749 20.024 59.8069 19.888 59.1189 19.888C 57.9189 19.888 56.6949 20.272 55.4469 21.04C 55.2389 21.184 54.9829 21.304 54.6789 21.4C 54.3909 21.48 54.1189 21.52 53.8629 21.52C 53.6229 21.52 53.4309 21.48 53.2869 21.4C 53.1429 21.304 53.0709 21.16 53.0709 20.968C 53.0709 20.856 53.0869 20.76 53.1189 20.68C 53.5829 19.384 53.9509 18.216 54.2229 17.176C 54.5109 16.136 54.7029 15.08 54.7989 14.008C 54.9429 12.568 55.0149 11.512 55.0149 10.84C 55.0149 9.064 54.6709 7.704 53.9829 6.76C 53.9029 6.664 53.8629 6.536 53.8629 6.376C 53.8629 6.056 54.0869 5.76 54.5349 5.488C 54.9829 5.2 55.4229 5.056 55.8549 5.056C 56.1429 5.056 56.3509 5.12 56.4789 5.248C 56.6869 5.328 56.8229 5.456 56.8869 5.632C 57.2869 6.688 57.8389 7.584 58.5429 8.32C 59.2469 9.04 60.0789 9.4 61.0389 9.4C 61.2149 9.4 61.4789 9.368 61.8309 9.304C 62.0549 9.272 62.1989 9.256 62.2629 9.256C 62.5349 9.256 62.7349 9.32 62.8629 9.448C 63.0069 9.56 63.0789 9.72 63.0789 9.928C 63.0789 10.152 62.9829 10.376 62.7909 10.6C 62.6149 10.824 62.3749 10.984 62.0709 11.08C 61.4149 11.304 60.7589 11.416 60.1029 11.416C 59.3189 11.416 58.5669 11.256 57.8469 10.936C 57.8149 11.832 57.7749 12.504 57.7269 12.952L 57.5589 14.464C 58.1829 14.352 58.8069 14.256 59.4309 14.176L 59.7669 14.152C 60.4069 14.152 60.7269 14.368 60.7269 14.8C 60.7269 15.088 60.5669 15.344 60.2469 15.568C 59.9269 15.792 59.5989 15.936 59.2629 16C 58.7669 16.096 58.0869 16.2 57.2229 16.312C 57.0469 17.096 56.8549 17.832 56.6469 18.52C 57.7029 18.136 58.7749 17.944 59.8629 17.944C 61.0629 17.944 62.2629 18.168 63.4629 18.616ZM 74.9942 18.616C 75.2342 18.696 75.3542 18.84 75.3542 19.048C 75.3542 19.304 75.2022 19.584 74.8982 19.888C 74.5622 20.224 74.1302 20.392 73.6022 20.392C 73.3462 20.392 73.1302 20.36 72.9542 20.296C 72.1062 20.024 71.3382 19.888 70.6502 19.888C 69.4502 19.888 68.2262 20.272 66.9782 21.04C 66.7702 21.184 66.5142 21.304 66.2102 21.4C 65.9222 21.48 65.6502 21.52 65.3942 21.52C 65.1542 21.52 64.9622 21.48 64.8182 21.4C 64.6742 21.304 64.6022 21.16 64.6022 20.968C 64.6022 20.856 64.6182 20.76 64.6502 20.68C 65.1142 19.384 65.4822 18.216 65.7542 17.176C 66.0422 16.136 66.2342 15.08 66.3302 14.008C 66.4742 12.568 66.5462 11.512 66.5462 10.84C 66.5462 9.064 66.2022 7.704 65.5142 6.76C 65.4342 6.664 65.3942 6.536 65.3942 6.376C 65.3942 6.056 65.6182 5.76 66.0662 5.488C 66.5142 5.2 66.9542 5.056 67.3862 5.056C 67.6742 5.056 67.8822 5.12 68.0102 5.248C 68.2182 5.328 68.3542 5.456 68.4182 5.632C 68.8182 6.688 69.3702 7.584 70.0742 8.32C 70.7782 9.04 71.6102 9.4 72.5702 9.4C 72.7462 9.4 73.0102 9.368 73.3622 9.304C 73.5862 9.272 73.7302 9.256 73.7942 9.256C 74.0662 9.256 74.2662 9.32 74.3942 9.448C 74.5382 9.56 74.6102 9.72 74.6102 9.928C 74.6102 10.152 74.5142 10.376 74.3222 10.6C 74.1462 10.824 73.9062 10.984 73.6022 11.08C 72.9462 11.304 72.2902 11.416 71.6342 11.416C 70.8502 11.416 70.0982 11.256 69.3782 10.936C 69.3462 11.832 69.3062 12.504 69.2582 12.952L 69.0902 14.464C 69.7142 14.352 70.3382 14.256 70.9622 14.176L 71.2982 14.152C 71.9382 14.152 72.2582 14.368 72.2582 14.8C 72.2582 15.088 72.0982 15.344 71.7782 15.568C 71.4582 15.792 71.1302 15.936 70.7942 16C 70.2982 16.096 69.6182 16.2 68.7542 16.312C 68.5782 17.096 68.3862 17.832 68.1782 18.52C 69.2342 18.136 70.3062 17.944 71.3942 17.944C 72.5942 17.944 73.7942 18.168 74.9942 18.616ZM 77.3574 8.248C 77.3734 7.928 77.6054 7.648 78.0534 7.408C 78.5014 7.152 78.9494 7.024 79.3974 7.024C 79.6534 7.024 79.8614 7.08 80.0214 7.192C 80.1814 7.288 80.2534 7.448 80.2374 7.672L 79.5414 20.704C 79.5254 21.04 79.2934 21.336 78.8454 21.592C 78.3974 21.832 77.9494 21.952 77.5014 21.952C 76.9094 21.952 76.6214 21.72 76.6374 21.256L 77.3574 8.248ZM 77.3094 5.08C 77.2774 5.304 77.3334 5.472 77.4774 5.584C 77.6374 5.696 77.8454 5.752 78.1014 5.752C 78.5334 5.752 78.9734 5.632 79.4214 5.392C 79.8694 5.152 80.1174 4.864 80.1654 4.528C 80.2934 3.728 80.3814 3.128 80.4294 2.728C 80.4934 2.328 80.2454 2.128 79.6854 2.128C 79.2534 2.128 78.8054 2.248 78.3414 2.488C 77.8774 2.728 77.6294 3 77.5974 3.304L 77.3094 5.08ZM 90.2256 7.456C 89.8416 10.368 89.6496 13.112 89.6496 15.688C 89.6496 16.936 89.6976 18.2 89.7936 19.48C 89.8256 19.576 89.8416 19.656 89.8416 19.72C 89.8416 19.768 89.8256 19.84 89.7936 19.936C 89.7936 19.952 89.7856 19.96 89.7696 19.96L 89.7696 20.008C 89.6736 20.28 89.4496 20.52 89.0976 20.728C 88.7456 20.92 88.3696 21.032 87.9696 21.064C 87.3296 21.128 86.9456 20.96 86.8176 20.56C 86.2576 19.056 85.3696 16.976 84.1536 14.32L 83.8656 13.648C 83.7376 15.648 83.6576 17.784 83.6256 20.056C 83.6256 20.392 83.4016 20.696 82.9536 20.968C 82.5056 21.224 82.0496 21.352 81.5856 21.352C 81.2976 21.352 81.0656 21.296 80.8896 21.184C 80.7136 21.072 80.6336 20.888 80.6496 20.632C 80.7456 16.28 81.0576 12.16 81.5856 8.272L 81.6096 8.176C 81.5776 7.824 81.7936 7.504 82.2576 7.216C 82.7216 6.928 83.1856 6.784 83.6496 6.784C 84.1296 6.784 84.4256 6.944 84.5376 7.264C 85.0496 8.656 85.8096 10.448 86.8176 12.64C 86.9136 11.136 87.0816 9.608 87.3216 8.056C 87.3696 7.736 87.6256 7.456 88.0896 7.216C 88.5536 6.96 89.0096 6.832 89.4576 6.832C 90.0336 6.832 90.2896 7.04 90.2256 7.456ZM 102.084 12.712C 102.1 12.728 102.108 12.752 102.108 12.784C 102.22 13.792 102.276 14.88 102.276 16.048C 102.276 17.344 102.196 18.584 102.036 19.768C 101.988 20.088 101.74 20.376 101.292 20.632C 100.844 20.872 100.404 20.992 99.9716 20.992C 99.7156 20.992 99.5156 20.944 99.3716 20.848C 99.2276 20.736 99.1636 20.568 99.1796 20.344C 99.3396 18.872 99.4196 17.568 99.4196 16.432C 98.9236 17.696 98.2516 18.768 97.4036 19.648C 96.5556 20.512 95.5716 20.944 94.4516 20.944C 94.2116 20.944 93.9716 20.92 93.7316 20.872C 92.6916 20.696 91.9476 20.224 91.4996 19.456C 91.0516 18.672 90.8276 17.712 90.8276 16.576C 90.8276 15.456 91.0116 14.24 91.3796 12.928C 91.6676 11.936 92.0916 10.984 92.6516 10.072C 93.2276 9.144 93.9236 8.384 94.7396 7.792C 95.5556 7.2 96.4516 6.904 97.4276 6.904C 98.2596 6.904 98.8676 7.064 99.2516 7.384C 99.6356 7.704 99.8276 8.128 99.8276 8.656C 99.8276 9.312 99.5876 10.04 99.1076 10.84C 98.6276 11.624 98.1156 12.224 97.5716 12.64C 97.4116 12.752 97.1956 12.848 96.9236 12.928C 96.6516 12.992 96.3876 13.024 96.1316 13.024C 95.8436 13.024 95.6116 12.984 95.4356 12.904C 95.2596 12.824 95.1716 12.712 95.1716 12.568C 95.1716 12.36 95.3316 12.12 95.6516 11.848C 95.8596 11.672 96.1396 11.296 96.4916 10.72C 96.8596 10.128 97.0436 9.664 97.0436 9.328C 97.0436 9.024 96.8756 8.872 96.5396 8.872C 96.0596 8.872 95.4916 9.592 94.8356 11.032C 94.4676 11.752 94.1956 12.536 94.0196 13.384C 93.7956 14.408 93.6836 15.352 93.6836 16.216C 93.6836 17.768 94.1076 18.624 94.9556 18.784C 95.2916 18.832 95.6196 18.584 95.9396 18.04C 96.2756 17.48 96.5636 16.824 96.8036 16.072C 96.5956 16.184 96.2836 16.336 95.8676 16.528C 95.6116 16.64 95.3316 16.696 95.0276 16.696C 94.7076 16.696 94.4676 16.616 94.3076 16.456C 94.2116 16.328 94.1636 16.208 94.1636 16.096C 94.1636 15.952 94.2036 15.816 94.2836 15.688C 94.3796 15.544 94.4916 15.432 94.6196 15.352C 96.6516 13.96 98.5876 12.848 100.428 12.016C 100.572 11.952 100.748 11.92 100.956 11.92C 101.276 11.92 101.556 12 101.796 12.16C 102.036 12.304 102.132 12.488 102.084 12.712Z"/>
<path id="path2_fill" d="M 5.598 2.042C 5.922 1.97 6.222 1.934 6.498 1.934C 7.542 1.934 8.322 2.384 8.838 3.284C 9.354 4.172 9.612 5.33 9.612 6.758C 9.612 8.246 9.348 9.782 8.82 11.366C 8.304 12.938 7.59 14.246 6.678 15.29C 5.778 16.334 4.776 16.856 3.672 16.856C 3.156 16.856 2.652 16.736 2.16 16.496C 1.56 16.196 1.11 15.686 0.81 14.966C 0.522 14.246 0.378 13.382 0.378 12.374C 0.378 11.006 0.618 9.554 1.098 8.018C 1.59 6.47 2.238 5.138 3.042 4.022C 3.846 2.906 4.698 2.246 5.598 2.042ZM 5.274 4.958C 4.65 4.97 4.08 5.294 3.564 5.93C 3.06 6.554 2.658 7.34 2.358 8.288C 2.07 9.224 1.926 10.142 1.926 11.042C 1.926 11.954 2.088 12.698 2.412 13.274C 2.736 13.838 3.222 14.12 3.87 14.12C 4.134 14.12 4.398 14.078 4.662 13.994C 5.214 13.814 5.724 13.406 6.192 12.77C 6.672 12.134 7.05 11.39 7.326 10.538C 7.602 9.674 7.74 8.84 7.74 8.036C 7.74 7.1 7.536 6.35 7.128 5.786C 6.732 5.21 6.114 4.934 5.274 4.958ZM 16.6842 6.47C 16.8042 6.35 17.0022 6.248 17.2782 6.164C 17.5542 6.068 17.8062 6.02 18.0342 6.02C 18.3942 6.02 18.5742 6.128 18.5742 6.344C 18.5742 6.464 18.5202 6.596 18.4122 6.74C 18.0402 7.244 17.5662 7.634 16.9902 7.91C 16.4262 8.174 15.8142 8.306 15.1542 8.306C 14.4822 8.306 13.7742 8.126 13.0302 7.766C 13.1382 8.702 13.1922 9.638 13.1922 10.574L 13.7502 10.592C 14.3022 10.616 15.0402 10.658 15.9642 10.718L 16.6302 10.772C 17.0622 10.808 17.2782 10.946 17.2782 11.186C 17.2782 11.39 17.1402 11.6 16.8642 11.816C 16.6002 12.032 16.3302 12.14 16.0542 12.14C 15.5622 12.14 14.9682 12.116 14.2722 12.068L 13.1382 12.014C 13.0422 13.238 12.8682 14.396 12.6162 15.488C 12.5682 15.74 12.3642 15.956 12.0042 16.136C 11.6562 16.316 11.3142 16.406 10.9782 16.406C 10.7742 16.406 10.6182 16.37 10.5102 16.298C 10.4022 16.214 10.3662 16.088 10.4022 15.92C 10.7022 14.6 10.8882 13.256 10.9602 11.888L 10.6542 11.888C 10.3782 11.888 10.2402 11.804 10.2402 11.636C 10.2402 11.516 10.2942 11.384 10.4022 11.24C 10.5222 11.096 10.6482 10.988 10.7802 10.916L 10.9782 10.808C 10.9782 9.356 10.8462 7.928 10.5822 6.524L 10.5822 6.398C 10.5222 6.314 10.4922 6.242 10.4922 6.182C 10.4922 5.966 10.6662 5.75 11.0142 5.534C 11.3742 5.318 11.7102 5.21 12.0222 5.21C 12.1182 5.21 12.2262 5.234 12.3462 5.282L 13.0482 5.696C 13.6362 6.056 14.1342 6.338 14.5422 6.542C 14.9622 6.746 15.3642 6.848 15.7482 6.848C 16.1202 6.848 16.4322 6.722 16.6842 6.47ZM 34.2609 14.48C 34.4049 14.588 34.4769 14.762 34.4769 15.002C 34.4769 15.242 34.3989 15.506 34.2429 15.794C 34.0869 16.07 33.8889 16.304 33.6489 16.496C 33.4089 16.676 33.1749 16.766 32.9469 16.766C 32.4429 16.766 32.1189 16.304 31.9749 15.38C 31.9269 15.044 31.9029 14.666 31.9029 14.246C 31.9029 14.03 31.9149 13.694 31.9389 13.238L 31.9569 12.23C 31.9569 11.702 31.9689 10.91 31.9929 9.854C 32.0289 8.786 32.0469 7.724 32.0469 6.668C 31.7469 7.472 31.3689 8.576 30.9129 9.98C 30.7809 10.388 30.6489 10.724 30.5169 10.988C 30.3849 11.252 30.1929 11.486 29.9409 11.69C 29.7009 11.894 29.4609 11.996 29.2209 11.996C 28.7649 11.996 28.3869 11.69 28.0869 11.078C 27.7869 10.466 27.5289 9.776 27.3129 9.008L 27.1509 10.34C 26.9949 11.54 26.8509 12.5 26.7189 13.22C 26.5989 13.94 26.4189 14.66 26.1789 15.38C 25.9989 15.92 25.7889 16.382 25.5489 16.766C 25.3209 17.138 25.0209 17.324 24.6489 17.324C 24.2289 17.324 24.0189 17.108 24.0189 16.676C 24.0189 16.376 24.1089 16.034 24.2889 15.65C 24.2769 15.674 24.2649 15.698 24.2529 15.722C 24.2529 15.734 24.2469 15.74 24.2349 15.74L 24.3429 15.398C 24.4509 15.038 24.5469 14.612 24.6309 14.12C 24.8109 13.208 24.9789 12.182 25.1349 11.042L 25.5669 7.892C 25.6989 6.764 25.8429 5.678 25.9989 4.634C 26.0829 4.022 26.1729 3.542 26.2689 3.194C 26.3769 2.834 26.5689 2.492 26.8449 2.168C 26.9769 2.012 27.1269 1.886 27.2949 1.79C 27.4749 1.694 27.6429 1.646 27.7989 1.646C 28.0629 1.646 28.2609 1.766 28.3929 2.006C 28.4889 2.186 28.5489 2.48 28.5729 2.888L 28.6269 3.32C 28.7109 3.764 28.8189 4.25 28.9509 4.778C 29.2749 6.074 29.5689 7.07 29.8329 7.766C 29.9289 7.478 29.9889 7.304 30.0129 7.244C 30.3489 6.26 30.6489 5.444 30.9129 4.796C 31.1889 4.148 31.5189 3.548 31.9029 2.996C 32.0829 2.744 32.2869 2.528 32.5149 2.348C 32.7429 2.156 32.9709 2.06 33.1989 2.06C 33.4509 2.06 33.6309 2.15 33.7389 2.33C 33.8589 2.498 33.9309 2.672 33.9549 2.852C 33.9909 3.02 34.0269 3.308 34.0629 3.716C 34.1109 4.256 34.1349 4.88 34.1349 5.588C 34.1349 6.104 34.1109 6.89 34.0629 7.946C 34.0509 8.162 34.0389 8.432 34.0269 8.756C 34.0149 9.08 34.0089 9.458 34.0089 9.89L 33.9909 11.114C 33.9909 11.51 34.0029 12.092 34.0269 12.86L 34.0089 13.436C 34.0089 13.988 34.0929 14.336 34.2609 14.48ZM 39.4532 10.898L 39.3092 11.258L 40.5692 12.32L 40.4432 11.798C 40.3592 11.462 40.1912 10.748 39.9392 9.656L 39.4532 10.898ZM 41.5052 5.642C 41.6732 6.686 41.8832 7.748 42.1352 8.828C 42.3992 9.896 42.7172 11.126 43.0892 12.518C 43.4372 13.838 43.6652 14.714 43.7732 15.146C 43.7852 15.182 43.7912 15.236 43.7912 15.308C 43.7912 15.596 43.6292 15.848 43.3052 16.064C 42.9812 16.268 42.6452 16.37 42.2972 16.37C 42.0092 16.37 41.7872 16.292 41.6312 16.136C 41.2832 15.764 40.9172 15.41 40.5332 15.074C 40.1492 14.738 39.6452 14.324 39.0212 13.832L 38.4272 13.346C 37.9232 14.426 37.5332 15.224 37.2572 15.74C 37.1732 15.92 36.9512 16.088 36.5912 16.244C 36.2432 16.388 35.9192 16.46 35.6192 16.46C 35.2832 16.46 35.1152 16.352 35.1152 16.136C 35.1152 16.076 35.1332 16.004 35.1692 15.92C 35.5292 15.032 35.9552 14.012 36.4472 12.86L 36.8252 11.942C 36.5252 11.642 36.3752 11.492 36.3752 11.492C 36.2912 11.408 36.2492 11.312 36.2492 11.204C 36.2492 11 36.3812 10.808 36.6452 10.628C 36.9092 10.436 37.2032 10.31 37.5272 10.25C 38.1032 8.87 38.6432 7.466 39.1472 6.038C 39.1952 5.87 39.3452 5.726 39.5972 5.606C 39.8612 5.474 40.1372 5.39 40.4252 5.354C 40.6292 5.294 40.8032 5.264 40.9472 5.264C 41.2832 5.264 41.4692 5.39 41.5052 5.642ZM 52.7795 10.034C 52.7915 10.046 52.7975 10.064 52.7975 10.088C 52.8815 10.844 52.9235 11.66 52.9235 12.536C 52.9235 13.508 52.8635 14.438 52.7435 15.326C 52.7075 15.566 52.5215 15.782 52.1855 15.974C 51.8495 16.154 51.5195 16.244 51.1955 16.244C 51.0035 16.244 50.8535 16.208 50.7455 16.136C 50.6375 16.052 50.5895 15.926 50.6015 15.758C 50.7215 14.654 50.7815 13.676 50.7815 12.824C 50.4095 13.772 49.9055 14.576 49.2695 15.236C 48.6335 15.884 47.8955 16.208 47.0555 16.208C 46.8755 16.208 46.6955 16.19 46.5155 16.154C 45.7355 16.022 45.1775 15.668 44.8415 15.092C 44.5055 14.504 44.3375 13.784 44.3375 12.932C 44.3375 12.092 44.4755 11.18 44.7515 10.196C 44.9675 9.452 45.2855 8.738 45.7055 8.054C 46.1375 7.358 46.6595 6.788 47.2715 6.344C 47.8835 5.9 48.5555 5.678 49.2875 5.678C 49.9115 5.678 50.3675 5.798 50.6555 6.038C 50.9435 6.278 51.0875 6.596 51.0875 6.992C 51.0875 7.484 50.9075 8.03 50.5475 8.63C 50.1875 9.218 49.8035 9.668 49.3955 9.98C 49.2755 10.064 49.1135 10.136 48.9095 10.196C 48.7055 10.244 48.5075 10.268 48.3155 10.268C 48.0995 10.268 47.9255 10.238 47.7935 10.178C 47.6615 10.118 47.5955 10.034 47.5955 9.926C 47.5955 9.77 47.7155 9.59 47.9555 9.386C 48.1115 9.254 48.3215 8.972 48.5855 8.54C 48.8615 8.096 48.9995 7.748 48.9995 7.496C 48.9995 7.268 48.8735 7.154 48.6215 7.154C 48.2615 7.154 47.8355 7.694 47.3435 8.774C 47.0675 9.314 46.8635 9.902 46.7315 10.538C 46.5635 11.306 46.4795 12.014 46.4795 12.662C 46.4795 13.826 46.7975 14.468 47.4335 14.588C 47.6855 14.624 47.9315 14.438 48.1715 14.03C 48.4235 13.61 48.6395 13.118 48.8195 12.554C 48.6635 12.638 48.4295 12.752 48.1175 12.896C 47.9255 12.98 47.7155 13.022 47.4875 13.022C 47.2475 13.022 47.0675 12.962 46.9475 12.842C 46.8755 12.746 46.8395 12.656 46.8395 12.572C 46.8395 12.464 46.8695 12.362 46.9295 12.266C 47.0015 12.158 47.0855 12.074 47.1815 12.014C 48.7055 10.97 50.1575 10.136 51.5375 9.512C 51.6455 9.464 51.7775 9.44 51.9335 9.44C 52.1735 9.44 52.3835 9.5 52.5635 9.62C 52.7435 9.728 52.8155 9.866 52.7795 10.034ZM 54.2564 6.686C 54.2684 6.446 54.4424 6.236 54.7784 6.056C 55.1144 5.864 55.4504 5.768 55.7864 5.768C 55.9784 5.768 56.1344 5.81 56.2544 5.894C 56.3744 5.966 56.4284 6.086 56.4164 6.254L 55.8944 16.028C 55.8824 16.28 55.7084 16.502 55.3724 16.694C 55.0364 16.874 54.7004 16.964 54.3644 16.964C 53.9204 16.964 53.7044 16.79 53.7164 16.442L 54.2564 6.686ZM 54.2204 4.31C 54.1964 4.478 54.2384 4.604 54.3464 4.688C 54.4664 4.772 54.6224 4.814 54.8144 4.814C 55.1384 4.814 55.4684 4.724 55.8044 4.544C 56.1404 4.364 56.3264 4.148 56.3624 3.896C 56.4584 3.296 56.5244 2.846 56.5604 2.546C 56.6084 2.246 56.4224 2.096 56.0024 2.096C 55.6784 2.096 55.3424 2.186 54.9944 2.366C 54.6464 2.546 54.4604 2.75 54.4364 2.978L 54.2204 4.31ZM 63.3495 9.098C 63.3975 8.858 63.5775 8.654 63.8895 8.486C 64.2135 8.318 64.5315 8.234 64.8435 8.234C 65.2515 8.234 65.4315 8.39 65.3835 8.702L 65.3115 9.116C 65.1315 10.136 64.9455 11 64.7535 11.708C 64.5735 12.404 64.2915 13.082 63.9075 13.742C 63.5355 14.402 63.0435 14.924 62.4315 15.308C 61.6395 15.812 60.8295 16.064 60.0015 16.064C 59.5095 16.064 59.0475 15.962 58.6155 15.758C 58.1955 15.554 57.8415 15.236 57.5535 14.804C 57.0495 14.06 56.7975 13.208 56.7975 12.248C 56.7975 10.952 57.2595 9.452 58.1835 7.748C 58.4955 7.16 58.8195 6.692 59.1555 6.344C 59.5035 5.996 59.9355 5.786 60.4515 5.714C 60.4995 5.702 60.5655 5.696 60.6495 5.696C 60.8415 5.696 61.0095 5.732 61.1535 5.804C 61.5135 5.012 61.7895 4.418 61.9815 4.022C 62.0655 3.842 62.2635 3.686 62.5755 3.554C 62.8995 3.422 63.1995 3.356 63.4755 3.356C 63.8355 3.356 64.0155 3.47 64.0155 3.698C 64.0155 3.746 63.9975 3.818 63.9615 3.914C 63.1335 5.93 62.4615 7.496 61.9455 8.612C 61.8615 8.804 61.6635 8.966 61.3515 9.098C 61.0515 9.23 60.7575 9.296 60.4695 9.296C 60.2775 9.296 60.1215 9.266 60.0015 9.206C 59.8815 9.146 59.8215 9.05 59.8215 8.918C 59.8215 8.834 59.8455 8.744 59.8935 8.648L 60.1635 8.036C 60.1035 8.024 60.0495 7.994 60.0015 7.946L 59.6415 8.792C 59.3055 9.524 59.0835 10.256 58.9755 10.988C 58.9395 11.216 58.9215 11.45 58.9215 11.69C 58.9215 12.206 58.9995 12.692 59.1555 13.148C 59.3115 13.604 59.5575 13.97 59.8935 14.246C 60.1695 14.486 60.4395 14.606 60.7035 14.606C 61.7595 14.606 62.6415 12.77 63.3495 9.098ZM 68.6329 10.898L 68.4889 11.258L 69.7489 12.32L 69.6229 11.798C 69.5389 11.462 69.3709 10.748 69.1189 9.656L 68.6329 10.898ZM 70.6849 5.642C 70.8529 6.686 71.0629 7.748 71.3149 8.828C 71.5789 9.896 71.8969 11.126 72.2689 12.518C 72.6169 13.838 72.8449 14.714 72.9529 15.146C 72.9649 15.182 72.9709 15.236 72.9709 15.308C 72.9709 15.596 72.8089 15.848 72.4849 16.064C 72.1609 16.268 71.8249 16.37 71.4769 16.37C 71.1889 16.37 70.9669 16.292 70.8109 16.136C 70.4629 15.764 70.0969 15.41 69.7129 15.074C 69.3289 14.738 68.8249 14.324 68.2009 13.832L 67.6069 13.346C 67.1029 14.426 66.7129 15.224 66.4369 15.74C 66.3529 15.92 66.1309 16.088 65.7709 16.244C 65.4229 16.388 65.0989 16.46 64.7989 16.46C 64.4629 16.46 64.2949 16.352 64.2949 16.136C 64.2949 16.076 64.3129 16.004 64.3489 15.92C 64.7089 15.032 65.1349 14.012 65.6269 12.86L 66.0049 11.942C 65.7049 11.642 65.5549 11.492 65.5549 11.492C 65.4709 11.408 65.4289 11.312 65.4289 11.204C 65.4289 11 65.5609 10.808 65.8249 10.628C 66.0889 10.436 66.3829 10.31 66.7069 10.25C 67.2829 8.87 67.8229 7.466 68.3269 6.038C 68.3749 5.87 68.5249 5.726 68.7769 5.606C 69.0409 5.474 69.3169 5.39 69.6049 5.354C 69.8089 5.294 69.9829 5.264 70.1269 5.264C 70.4629 5.264 70.6489 5.39 70.6849 5.642ZM 75.6412 2.096C 75.6652 1.868 75.8572 1.664 76.2172 1.484C 76.5772 1.292 76.9192 1.196 77.2432 1.196C 77.6272 1.196 77.8132 1.34 77.8012 1.628C 77.6092 3.776 77.2912 6.74 76.8472 10.52C 76.5592 13.1 76.3732 14.774 76.2892 15.542C 76.2652 15.794 76.0732 16.022 75.7132 16.226C 75.3652 16.418 75.0232 16.514 74.6872 16.514C 74.2192 16.514 74.0032 16.34 74.0392 15.992C 74.4592 11.864 74.9932 7.232 75.6412 2.096ZM 83.8607 1.898C 84.0167 1.814 84.1847 1.772 84.3647 1.772C 84.6167 1.772 84.8507 1.844 85.0667 1.988C 85.1507 2.048 85.2287 2.108 85.3007 2.168C 85.3727 2.228 85.4387 2.282 85.4987 2.33C 85.5707 2.378 85.6667 2.426 85.7867 2.474C 85.9067 2.522 86.0087 2.57 86.0927 2.618C 86.4527 2.81 86.9807 3.11 87.6767 3.518L 89.2787 4.436C 90.2027 4.964 91.0127 5.42 91.7087 5.804L 92.8607 6.416C 93.5447 6.764 94.1207 7.076 94.5887 7.352C 95.0687 7.628 95.5127 7.94 95.9207 8.288C 96.2207 8.564 96.4547 8.834 96.6227 9.098C 96.7907 9.362 96.8747 9.65 96.8747 9.962L 96.8567 10.16C 96.7367 10.856 96.3707 11.522 95.7587 12.158C 95.2907 12.662 94.7387 13.094 94.1027 13.454C 93.4787 13.814 92.7587 14.156 91.9427 14.48C 90.5507 15.008 88.9547 15.482 87.1547 15.902C 86.9627 15.95 86.8247 15.98 86.7407 15.992L 86.0027 16.172L 84.9587 16.37C 84.6347 16.43 84.2387 16.49 83.7707 16.55C 83.7227 16.562 83.6327 16.586 83.5007 16.622C 83.3807 16.646 83.2727 16.658 83.1767 16.658C 83.1287 16.658 83.0567 16.646 82.9607 16.622C 82.7087 16.574 82.5827 16.424 82.5827 16.172C 82.5827 16.004 82.6427 15.812 82.7627 15.596C 82.8707 15.368 82.9847 15.188 83.1047 15.056C 83.4647 14.636 83.9927 14.348 84.6887 14.192C 84.8327 14.156 84.9167 14.12 84.9407 14.084C 84.9767 14.036 85.0007 13.934 85.0127 13.778C 85.0127 13.562 85.0247 13.238 85.0487 12.806C 85.1447 11.666 85.2047 10.796 85.2287 10.196C 85.2767 9.62 85.3067 9.188 85.3187 8.9C 85.3307 8.84 85.3427 8.762 85.3547 8.666C 85.3667 8.558 85.3727 8.432 85.3727 8.288C 85.3727 8.132 85.3487 7.988 85.3007 7.856C 85.0487 7.244 84.6467 6.488 84.0947 5.588C 84.0947 5.6 84.1007 5.618 84.1127 5.642C 84.1367 5.654 84.1547 5.684 84.1667 5.732C 84.0107 5.456 83.7527 5.054 83.3927 4.526C 83.3447 4.466 83.2907 4.388 83.2307 4.292C 83.1707 4.196 83.1167 4.118 83.0687 4.058C 83.0327 4.022 82.9847 3.974 82.9247 3.914C 82.8647 3.842 82.8167 3.782 82.7807 3.734C 82.7207 3.614 82.6907 3.506 82.6907 3.41C 82.6907 3.146 82.8227 2.87 83.0867 2.582C 83.3387 2.294 83.5967 2.066 83.8607 1.898ZM 88.0547 13.49C 89.1467 13.25 90.3287 12.932 91.6007 12.536C 92.2847 12.32 92.8427 12.122 93.2747 11.942C 93.7067 11.762 94.1147 11.528 94.4987 11.24C 94.1507 10.82 93.7547 10.46 93.3107 10.16C 92.8787 9.848 92.2607 9.452 91.4567 8.972L 90.1067 8.162L 87.9287 6.812C 88.3727 8.072 88.5947 9.254 88.5947 10.358C 88.5947 11.162 88.4807 11.96 88.2527 12.752L 88.0547 13.49ZM 104.41 14.462C 104.59 14.522 104.68 14.63 104.68 14.786C 104.68 14.978 104.566 15.188 104.338 15.416C 104.086 15.668 103.762 15.794 103.366 15.794C 103.174 15.794 103.012 15.77 102.88 15.722C 102.244 15.518 101.668 15.416 101.152 15.416C 100.252 15.416 99.3337 15.704 98.3977 16.28C 98.2417 16.388 98.0497 16.478 97.8217 16.55C 97.6057 16.61 97.4017 16.64 97.2097 16.64C 97.0297 16.64 96.8857 16.61 96.7777 16.55C 96.6697 16.478 96.6157 16.37 96.6157 16.226C 96.6157 16.142 96.6277 16.07 96.6517 16.01C 96.9997 15.038 97.2757 14.162 97.4797 13.382C 97.6957 12.602 97.8397 11.81 97.9117 11.006C 98.0197 9.926 98.0737 9.134 98.0737 8.63C 98.0737 7.298 97.8157 6.278 97.2997 5.57C 97.2397 5.498 97.2097 5.402 97.2097 5.282C 97.2097 5.042 97.3777 4.82 97.7137 4.616C 98.0497 4.4 98.3797 4.292 98.7037 4.292C 98.9197 4.292 99.0757 4.34 99.1717 4.436C 99.3277 4.496 99.4297 4.592 99.4777 4.724C 99.7777 5.516 100.192 6.188 100.72 6.74C 101.248 7.28 101.872 7.55 102.592 7.55C 102.724 7.55 102.922 7.526 103.186 7.478C 103.354 7.454 103.462 7.442 103.51 7.442C 103.714 7.442 103.864 7.49 103.96 7.586C 104.068 7.67 104.122 7.79 104.122 7.946C 104.122 8.114 104.05 8.282 103.906 8.45C 103.774 8.618 103.594 8.738 103.366 8.81C 102.874 8.978 102.382 9.062 101.89 9.062C 101.302 9.062 100.738 8.942 100.198 8.702C 100.174 9.374 100.144 9.878 100.108 10.214L 99.9817 11.348C 100.45 11.264 100.918 11.192 101.386 11.132L 101.638 11.114C 102.118 11.114 102.358 11.276 102.358 11.6C 102.358 11.816 102.238 12.008 101.998 12.176C 101.758 12.344 101.512 12.452 101.26 12.5C 100.888 12.572 100.378 12.65 99.7297 12.734C 99.5977 13.322 99.4537 13.874 99.2977 14.39C 100.09 14.102 100.894 13.958 101.71 13.958C 102.61 13.958 103.51 14.126 104.41 14.462ZM 110.983 8.504C 110.755 8.312 110.359 8.06 109.795 7.748C 109.243 7.424 108.817 7.262 108.517 7.262C 108.277 7.262 108.157 7.382 108.157 7.622C 108.157 7.706 108.187 7.85 108.247 8.054C 108.331 8.33 108.517 8.594 108.805 8.846C 109.093 9.086 109.471 9.368 109.939 9.692C 110.323 9.956 110.569 10.136 110.677 10.232C 111.205 10.688 111.625 11.072 111.937 11.384C 112.249 11.684 112.531 12.044 112.783 12.464C 113.047 12.872 113.179 13.292 113.179 13.724C 113.179 14.012 113.107 14.312 112.963 14.624C 112.687 15.188 112.231 15.62 111.595 15.92C 110.971 16.22 110.305 16.37 109.597 16.37C 109.357 16.37 109.117 16.352 108.877 16.316C 107.245 16.04 105.739 14.954 104.359 13.058C 104.287 12.95 104.251 12.842 104.251 12.734C 104.251 12.47 104.425 12.23 104.773 12.014C 105.133 11.786 105.487 11.672 105.835 11.672C 106.099 11.672 106.291 11.75 106.411 11.906C 107.155 12.914 107.887 13.652 108.607 14.12C 109.267 14.552 109.825 14.768 110.281 14.768C 110.653 14.768 110.839 14.606 110.839 14.282C 110.839 14.054 110.749 13.772 110.569 13.436C 110.389 13.112 110.155 12.806 109.867 12.518C 109.579 12.23 109.213 11.9 108.769 11.528L 108.283 11.114C 108.235 11.066 108.013 10.892 107.617 10.592C 107.293 10.352 107.017 10.13 106.789 9.926C 106.561 9.722 106.369 9.5 106.213 9.26C 106.009 8.936 105.907 8.6 105.907 8.252C 105.907 7.712 106.135 7.22 106.591 6.776C 107.059 6.32 107.593 6.008 108.193 5.84C 108.577 5.732 108.943 5.678 109.291 5.678C 109.939 5.678 110.563 5.828 111.163 6.128C 111.775 6.428 112.393 6.842 113.017 7.37C 113.125 7.454 113.179 7.556 113.179 7.676C 113.179 7.904 112.993 8.126 112.621 8.342C 112.249 8.558 111.883 8.666 111.523 8.666C 111.283 8.666 111.103 8.612 110.983 8.504ZM 118.566 5.642C 118.818 5.618 119.01 5.648 119.142 5.732C 119.286 5.816 119.436 5.978 119.592 6.218C 119.688 6.374 119.736 6.506 119.736 6.614C 119.736 6.878 119.568 7.034 119.232 7.082L 118.602 7.154C 118.014 7.238 117.702 7.28 117.666 7.28C 117.462 9.2 117.3 10.868 117.18 12.284C 117.06 13.7 116.982 15.098 116.946 16.478C 116.934 16.646 116.862 16.772 116.73 16.856C 116.61 16.94 116.448 16.982 116.244 16.982C 115.884 16.982 115.524 16.886 115.164 16.694C 114.816 16.49 114.648 16.262 114.66 16.01C 114.696 14.738 114.768 13.442 114.876 12.122C 114.984 10.79 115.128 9.248 115.308 7.496L 114.174 7.64C 114.006 7.652 113.874 7.646 113.778 7.622C 113.694 7.586 113.61 7.514 113.526 7.406C 113.442 7.298 113.358 7.178 113.274 7.046C 113.178 6.914 113.13 6.782 113.13 6.65C 113.13 6.542 113.172 6.446 113.256 6.362C 113.34 6.278 113.466 6.224 113.634 6.2C 113.898 6.164 114.204 6.122 114.552 6.074L 115.47 5.948L 115.794 2.834C 115.83 2.498 116.076 2.33 116.532 2.33C 116.892 2.33 117.24 2.432 117.576 2.636C 117.924 2.828 118.086 3.05 118.062 3.302L 117.828 5.714C 118.164 5.69 118.41 5.666 118.566 5.642ZM 120.297 6.686C 120.309 6.446 120.483 6.236 120.819 6.056C 121.155 5.864 121.491 5.768 121.827 5.768C 122.019 5.768 122.175 5.81 122.295 5.894C 122.415 5.966 122.469 6.086 122.457 6.254L 121.935 16.028C 121.923 16.28 121.749 16.502 121.413 16.694C 121.077 16.874 120.741 16.964 120.405 16.964C 119.961 16.964 119.745 16.79 119.757 16.442L 120.297 6.686ZM 120.261 4.31C 120.237 4.478 120.279 4.604 120.387 4.688C 120.507 4.772 120.663 4.814 120.855 4.814C 121.179 4.814 121.509 4.724 121.845 4.544C 122.181 4.364 122.367 4.148 122.403 3.896C 122.499 3.296 122.565 2.846 122.601 2.546C 122.649 2.246 122.463 2.096 122.043 2.096C 121.719 2.096 121.383 2.186 121.035 2.366C 120.687 2.546 120.501 2.75 120.477 2.978L 120.261 4.31ZM 129.948 6.092C 129.66 8.276 129.516 10.334 129.516 12.266C 129.516 13.202 129.552 14.15 129.624 15.11C 129.648 15.182 129.66 15.242 129.66 15.29C 129.66 15.326 129.648 15.38 129.624 15.452C 129.624 15.464 129.618 15.47 129.606 15.47L 129.606 15.506C 129.534 15.71 129.366 15.89 129.102 16.046C 128.838 16.19 128.556 16.274 128.256 16.298C 127.776 16.346 127.488 16.22 127.392 15.92C 126.972 14.792 126.306 13.232 125.394 11.24L 125.178 10.736C 125.082 12.236 125.022 13.838 124.998 15.542C 124.998 15.794 124.83 16.022 124.494 16.226C 124.158 16.418 123.816 16.514 123.468 16.514C 123.252 16.514 123.078 16.472 122.946 16.388C 122.814 16.304 122.754 16.166 122.766 15.974C 122.838 12.71 123.072 9.62 123.468 6.704L 123.486 6.632C 123.462 6.368 123.624 6.128 123.972 5.912C 124.32 5.696 124.668 5.588 125.016 5.588C 125.376 5.588 125.598 5.708 125.682 5.948C 126.066 6.992 126.636 8.336 127.392 9.98C 127.464 8.852 127.59 7.706 127.77 6.542C 127.806 6.302 127.998 6.092 128.346 5.912C 128.694 5.72 129.036 5.624 129.372 5.624C 129.804 5.624 129.996 5.78 129.948 6.092ZM 134.522 6.056C 134.498 5.804 134.654 5.582 134.99 5.39C 135.338 5.186 135.68 5.084 136.016 5.084C 136.388 5.084 136.592 5.21 136.628 5.462C 136.892 7.382 137.096 9.032 137.24 10.412C 137.384 11.792 137.456 13.16 137.456 14.516C 137.456 16.34 137.312 17.954 137.024 19.358C 136.796 20.474 136.466 21.476 136.034 22.364C 135.602 23.252 135.008 23.942 134.252 24.434C 133.628 24.83 132.998 25.028 132.362 25.028C 131.774 25.028 131.198 24.872 130.634 24.56C 130.07 24.26 129.542 23.846 129.05 23.318C 128.954 23.198 128.906 23.096 128.906 23.012C 128.906 22.772 129.08 22.544 129.428 22.328C 129.764 22.124 130.106 22.022 130.454 22.022C 130.694 22.022 130.88 22.088 131.012 22.22C 131.072 22.28 131.216 22.43 131.444 22.67C 131.672 22.91 131.906 23.114 132.146 23.282C 132.398 23.45 132.626 23.534 132.83 23.534C 132.938 23.534 133.016 23.522 133.064 23.498C 133.292 23.414 133.49 23.216 133.658 22.904C 133.838 22.592 133.982 22.304 134.09 22.04C 134.198 21.776 134.264 21.614 134.288 21.554C 134.576 20.834 134.786 20.072 134.918 19.268C 135.05 18.476 135.14 17.588 135.188 16.604C 135.212 15.836 135.224 15.254 135.224 14.858C 134.912 15.422 134.546 15.866 134.126 16.19C 133.706 16.502 133.196 16.658 132.596 16.658C 131.744 16.658 131.186 16.28 130.922 15.524C 130.67 14.756 130.538 13.82 130.526 12.716L 130.508 11.996C 130.508 10.124 130.7 8.366 131.084 6.722C 131.132 6.494 131.336 6.29 131.696 6.11C 132.056 5.93 132.398 5.84 132.722 5.84C 132.89 5.84 133.022 5.876 133.118 5.948C 133.214 6.02 133.25 6.122 133.226 6.254C 132.95 7.646 132.776 9.152 132.704 10.772C 132.68 11.276 132.668 11.666 132.668 11.942C 132.668 12.398 132.698 12.908 132.758 13.472C 132.83 13.976 132.914 14.336 133.01 14.552L 133.154 14.84C 133.238 14.684 133.352 14.45 133.496 14.138C 133.796 13.37 134.036 12.446 134.216 11.366L 134.378 10.484C 134.606 9.416 134.72 8.57 134.72 7.946C 134.72 7.634 134.708 7.4 134.684 7.244L 134.522 6.056Z"/>
<path id="path3_fill" d="M 37.24 13.85C 37.8933 14.13 38.22 15.0167 38.22 16.51C 38.22 17.4433 38.1033 18.54 37.87 19.8C 37.6367 21.06 37.4967 21.8767 37.45 22.25C 37.1233 25.0967 36.6567 28.3167 36.05 31.91C 35.3967 35.97 34.86 39.12 34.44 41.36C 34.02 43.5533 33.4367 45.7933 32.69 48.08C 31.8033 50.7867 30.6133 53.26 29.12 55.5C 27.6267 57.74 25.83 59.0933 23.73 59.56C 23.2633 59.6533 22.9367 59.7 22.75 59.7C 21.3967 59.7 20.37 59.0933 19.67 57.88C 18.97 56.6667 18.5267 55.3833 18.34 54.03C 18.1533 52.6767 17.99 50.9733 17.85 48.92C 16.9633 51.6267 16.0767 53.9133 15.19 55.78C 14.3033 57.6 13.1133 59.1867 11.62 60.54C 10.36 61.66 9.26333 62.22 8.33 62.22C 6.74333 62.22 5.74 60.5633 5.32 57.25C 4.94667 54.31 4.52667 49.9 4.06 44.02C 3.5 37.16 2.98667 32.0967 2.52 28.83C 2.42667 28.13 2.19333 26.9867 1.82 25.4C 1.54 24.3267 1.28333 23.2067 1.05 22.04C 0.863333 20.8733 0.77 19.8233 0.77 18.89C 0.77 18.0033 0.886667 17.14 1.12 16.3C 1.49333 15.0867 2.14667 13.9667 3.08 12.94C 4.06 11.8667 4.99333 11.33 5.88 11.33C 6.90667 11.33 7.60667 12.0533 7.98 13.5C 8.63333 15.88 9.26333 19.1233 9.87 23.23C 9.96333 23.79 10.08 24.6067 10.22 25.68C 10.4067 26.7533 10.57 27.6633 10.71 28.41C 11.6433 33.31 12.3433 38.21 12.81 43.11L 13.37 40.31C 13.7433 38.21 14.0933 36.5067 14.42 35.2C 14.7933 33.8933 15.33 32.6567 16.03 31.49C 16.73 30.3233 17.5233 29.2733 18.41 28.34C 19.2967 27.36 20.2067 26.87 21.14 26.87C 22.0733 26.87 22.7967 27.4067 23.31 28.48C 23.87 29.5067 24.2433 30.5567 24.43 31.63C 24.6167 32.6567 24.8033 34.0333 24.99 35.76C 25.0833 36.6933 25.1767 38.0933 25.27 39.96C 25.4567 43.4133 25.7833 46.1667 26.25 48.22C 27.09 44.86 27.7667 40.2867 28.28 34.5C 28.7933 30.02 29.0733 27.6167 29.12 27.29C 29.4467 25.0033 29.7267 23.2767 29.96 22.11C 30.24 20.8967 30.66 19.7067 31.22 18.54C 31.78 17.4667 32.55 16.3933 33.53 15.32C 34.51 14.2 35.4667 13.64 36.4 13.64C 36.68 13.64 36.96 13.71 37.24 13.85ZM 44.2001 25.89C 44.2467 24.9567 44.9234 24.14 46.2301 23.44C 47.5367 22.6933 48.8434 22.32 50.1501 22.32C 50.8967 22.32 51.5034 22.4833 51.9701 22.81C 52.4367 23.09 52.6467 23.5567 52.6001 24.21L 50.5701 62.22C 50.5234 63.2 49.8467 64.0633 48.5401 64.81C 47.2334 65.51 45.9267 65.86 44.6201 65.86C 42.8934 65.86 42.0534 65.1833 42.1001 63.83L 44.2001 25.89ZM 44.0601 16.65C 43.9667 17.3033 44.1301 17.7933 44.5501 18.12C 45.0167 18.4467 45.6234 18.61 46.3701 18.61C 47.6301 18.61 48.9134 18.26 50.2201 17.56C 51.5267 16.86 52.2501 16.02 52.3901 15.04C 52.7634 12.7067 53.0201 10.9567 53.1601 9.79C 53.3467 8.62333 52.6234 8.04 50.9901 8.04C 49.7301 8.04 48.4234 8.39 47.0701 9.09C 45.7167 9.79 44.9934 10.5833 44.9001 11.47L 44.0601 16.65ZM 87.2621 23.3C 87.8688 23.3 88.4521 23.51 89.0121 23.93C 89.6188 24.3033 89.9221 24.7467 89.9221 25.26C 89.9221 25.6333 89.8288 25.9367 89.6421 26.17C 88.3354 28.2233 86.8888 30.16 85.3021 31.98C 83.7154 33.8 81.5454 36.18 78.7921 39.12L 79.5621 39.05C 82.0354 39.05 83.2721 39.68 83.2721 40.94C 83.2721 41.8733 82.7821 42.62 81.8021 43.18C 80.8221 43.74 79.7954 44.09 78.7221 44.23C 77.6488 44.37 76.0388 44.5333 73.8921 44.72L 72.0021 46.96C 69.3888 49.9467 67.4754 52.21 66.2621 53.75L 64.0921 56.41C 67.0321 55.9433 71.4421 55.1033 77.3221 53.89L 81.7321 52.98L 82.8521 52.84C 83.5988 52.84 84.1588 53.0267 84.5321 53.4C 84.9054 53.7267 85.0921 54.1467 85.0921 54.66C 85.0921 55.36 84.8121 56.0367 84.2521 56.69C 83.6921 57.3433 82.9454 57.7867 82.0121 58.02C 73.8454 60.1667 65.6554 61.73 57.4421 62.71C 56.5554 62.8033 55.6921 62.71 54.8521 62.43C 54.0588 62.1033 53.6621 61.4967 53.6621 60.61C 53.6621 59.8633 53.9188 59.0933 54.4321 58.3C 54.9921 57.46 55.5754 56.69 56.1821 55.99C 56.7888 55.29 57.2088 54.8 57.4421 54.52C 59.3088 52.0933 61.8288 49.0833 65.0021 45.49C 64.6754 45.49 64.3488 45.5133 64.0221 45.56C 63.7421 45.6067 63.4388 45.63 63.1121 45.63C 62.0854 45.63 61.1988 45.5133 60.4521 45.28C 59.7521 45.0467 59.4021 44.51 59.4021 43.67C 59.4021 42.7833 59.9154 42.06 60.9421 41.5C 61.9688 40.8933 62.9721 40.5433 63.9521 40.45C 66.5654 40.17 68.5254 39.9833 69.8321 39.89L 74.3821 34.64L 76.8321 31.84L 79.2821 29.04L 73.8921 29.74C 68.7588 30.5333 64.7221 30.9067 61.7821 30.86C 60.1488 30.8133 59.3321 30.3933 59.3321 29.6C 59.3321 29.04 59.6821 28.4333 60.3821 27.78C 61.1288 27.1267 61.8988 26.6833 62.6921 26.45C 64.1854 25.9367 65.7254 25.5633 67.3121 25.33C 68.8988 25.05 70.9054 24.7933 73.3321 24.56C 74.1254 24.5133 75.2688 24.3967 76.7621 24.21C 78.4888 23.9767 80.2854 23.7667 82.1521 23.58C 84.0188 23.3933 85.7221 23.3 87.2621 23.3ZM 103.595 42.27L 103.035 43.67L 107.935 47.8L 107.445 45.77C 107.118 44.4633 106.465 41.6867 105.485 37.44L 103.595 42.27ZM 111.575 21.83C 112.228 25.89 113.045 30.02 114.025 34.22C 115.052 38.3733 116.288 43.1567 117.735 48.57C 119.088 53.7033 119.975 57.11 120.395 58.79C 120.442 58.93 120.465 59.14 120.465 59.42C 120.465 60.54 119.835 61.52 118.575 62.36C 117.315 63.1533 116.008 63.55 114.655 63.55C 113.535 63.55 112.672 63.2467 112.065 62.64C 110.712 61.1933 109.288 59.8167 107.795 58.51C 106.302 57.2033 104.342 55.5933 101.915 53.68L 99.6051 51.79C 97.6451 55.99 96.1284 59.0933 95.0551 61.1C 94.7284 61.8 93.8651 62.4533 92.4651 63.06C 91.1117 63.62 89.8517 63.9 88.6851 63.9C 87.3784 63.9 86.7251 63.48 86.7251 62.64C 86.7251 62.4067 86.7951 62.1267 86.9351 61.8C 88.3351 58.3467 89.9917 54.38 91.9051 49.9L 93.3751 46.33C 92.2084 45.1633 91.6251 44.58 91.6251 44.58C 91.2984 44.2533 91.1351 43.88 91.1351 43.46C 91.1351 42.6667 91.6484 41.92 92.6751 41.22C 93.7017 40.4733 94.8451 39.9833 96.1051 39.75C 98.3451 34.3833 100.445 28.9233 102.405 23.37C 102.592 22.7167 103.175 22.1567 104.155 21.69C 105.182 21.1767 106.255 20.85 107.375 20.71C 108.168 20.4767 108.845 20.36 109.405 20.36C 110.712 20.36 111.435 20.85 111.575 21.83ZM 136.52 38.63C 138.34 37.1833 139.81 35.9 140.93 34.78C 142.096 33.66 142.983 32.54 143.59 31.42C 141.07 30.7667 137.336 29.6933 132.39 28.2L 132.04 42.41C 133.44 41.2433 134.256 40.5433 134.49 40.31L 136.52 38.63ZM 147.79 48.43C 148.163 47.6833 148.956 47.0533 150.17 46.54C 151.383 45.98 152.55 45.7 153.67 45.7C 155.21 45.7 155.98 46.19 155.98 47.17C 155.98 47.45 155.91 47.7767 155.77 48.15C 153.856 52.63 152.41 56.97 151.43 61.17C 151.196 62.1033 150.52 62.9667 149.4 63.76C 148.933 64.3667 148.21 64.88 147.23 65.3C 146.296 65.72 145.363 65.93 144.43 65.93C 143.636 65.93 142.983 65.7667 142.47 65.44C 142.003 65.1133 141.746 64.6 141.7 63.9C 141.513 60.8667 140.51 58.09 138.69 55.57C 136.916 53.05 134.63 51.4167 131.83 50.67L 131.48 60.82C 131.433 61.7067 130.686 62.5233 129.24 63.27C 127.84 64.0167 126.486 64.39 125.18 64.39C 124.48 64.39 123.92 64.2733 123.5 64.04C 123.08 63.76 122.87 63.34 122.87 62.78L 123.08 53.12C 122.473 52.7 122.17 52.21 122.17 51.65C 122.17 50.9967 122.52 50.3667 123.22 49.76C 123.453 41.2667 123.733 32.7967 124.06 24.35C 124.106 23.37 124.76 22.53 126.02 21.83C 127.326 21.0833 128.633 20.71 129.94 20.71C 130.92 20.71 131.62 20.9433 132.04 21.41C 137.126 22.81 142.4 24.35 147.86 26.03C 148.7 25.8433 149.283 25.75 149.61 25.75C 150.403 25.75 151.01 25.9367 151.43 26.31C 151.896 26.6367 152.13 27.15 152.13 27.85C 152.13 29.7633 151.5 31.5367 150.24 33.17C 148.98 34.7567 147.23 36.53 144.99 38.49L 143.59 39.75C 141.35 41.9433 139.18 43.88 137.08 45.56C 140.906 46.6333 143.986 48.7567 146.32 51.93C 146.506 51.4633 146.996 50.2967 147.79 48.43ZM 165.661 51.44C 170.561 47.66 174.411 43.6467 177.211 39.4C 173.478 38.28 169.721 36.0167 165.941 32.61C 165.848 36.8567 165.754 43.1333 165.661 51.44ZM 185.891 35.55C 186.218 35.7833 186.381 36.0867 186.381 36.46C 186.381 36.7867 186.288 37.1133 186.101 37.44C 183.628 42.2 180.361 46.4233 176.301 50.11C 172.241 53.7967 167.318 57.4833 161.531 61.17C 160.971 61.4967 160.341 61.8 159.641 62.08C 158.941 62.3133 158.264 62.43 157.611 62.43C 156.911 62.43 156.304 62.2433 155.791 61.87C 155.231 61.45 154.951 60.9367 154.951 60.33C 154.951 59.5367 155.394 58.8367 156.281 58.23C 156.374 58.1833 156.468 58.1133 156.561 58.02C 156.654 57.9267 156.794 57.8333 156.981 57.74L 157.261 40.38C 157.354 36.6 157.448 30.8367 157.541 23.09C 157.494 22.9967 157.471 22.8333 157.471 22.6C 157.471 22.5067 157.518 22.2733 157.611 21.9L 157.611 21.13C 157.658 20.2433 158.264 19.4967 159.431 18.89C 160.598 18.2367 161.834 17.91 163.141 17.91C 164.028 17.91 164.728 18.0733 165.241 18.4C 165.801 18.7267 166.081 19.24 166.081 19.94L 166.081 20.64C 171.728 28.4333 177.888 33.1933 184.561 34.92C 185.261 35.1533 185.704 35.3633 185.891 35.55ZM 208.474 32.96C 207.587 32.2133 206.047 31.2333 203.854 30.02C 201.707 28.76 200.05 28.13 198.884 28.13C 197.95 28.13 197.484 28.5967 197.484 29.53C 197.484 29.8567 197.6 30.4167 197.834 31.21C 198.16 32.2833 198.884 33.31 200.004 34.29C 201.124 35.2233 202.594 36.32 204.414 37.58C 205.907 38.6067 206.864 39.3067 207.284 39.68C 209.337 41.4533 210.97 42.9467 212.184 44.16C 213.397 45.3267 214.494 46.7267 215.474 48.36C 216.5 49.9467 217.014 51.58 217.014 53.26C 217.014 54.38 216.734 55.5467 216.174 56.76C 215.1 58.9533 213.327 60.6333 210.854 61.8C 208.427 62.9667 205.837 63.55 203.084 63.55C 202.15 63.55 201.217 63.48 200.284 63.34C 193.937 62.2667 188.08 58.0433 182.714 50.67C 182.434 50.25 182.294 49.83 182.294 49.41C 182.294 48.3833 182.97 47.45 184.324 46.61C 185.724 45.7233 187.1 45.28 188.454 45.28C 189.48 45.28 190.227 45.5833 190.694 46.19C 193.587 50.11 196.434 52.98 199.234 54.8C 201.8 56.48 203.97 57.32 205.744 57.32C 207.19 57.32 207.914 56.69 207.914 55.43C 207.914 54.5433 207.564 53.4467 206.864 52.14C 206.164 50.88 205.254 49.69 204.134 48.57C 203.014 47.45 201.59 46.1667 199.864 44.72L 197.974 43.11C 197.787 42.9233 196.924 42.2467 195.384 41.08C 194.124 40.1467 193.05 39.2833 192.164 38.49C 191.277 37.6967 190.53 36.8333 189.924 35.9C 189.13 34.64 188.734 33.3333 188.734 31.98C 188.734 29.88 189.62 27.9667 191.394 26.24C 193.214 24.4667 195.29 23.2533 197.624 22.6C 199.117 22.18 200.54 21.97 201.894 21.97C 204.414 21.97 206.84 22.5533 209.174 23.72C 211.554 24.8867 213.957 26.4967 216.384 28.55C 216.804 28.8767 217.014 29.2733 217.014 29.74C 217.014 30.6267 216.29 31.49 214.844 32.33C 213.397 33.17 211.974 33.59 210.574 33.59C 209.64 33.59 208.94 33.38 208.474 32.96Z"/>
<path id="path4_fill" d="M 95.7293 15.4402C 95.7293 22.9939 74.2996 30.8804 47.8647 30.8804C 15.7421 30.8804 1.27898e-13 22.5279 4.25505e-28 15.4402C -1.27898e-13 8.35251 28.8325 -4.1525e-06 47.8647 5.17308e-13C 81.3132 7.29791e-06 95.7293 9.48397 95.7293 15.4402Z"/>
<path id="path5_stroke_2x" d="M 47.8647 30.8804L 47.8647 29.8804L 47.8647 30.8804ZM 47.8647 5.17308e-13L 47.8647 -1L 47.8647 5.17308e-13ZM 94.7293 15.4402C 94.7293 16.8429 93.7164 18.4925 91.371 20.2371C 89.0275 21.9858 85.6631 23.6091 81.391 25.0452C 72.8067 27.9384 61.0005 29.8838 47.8647 29.8804L 47.8647 31.8804C 61.1637 31.8771 73.2899 29.8792 82.0291 26.9407C 86.4188 25.4609 90.0641 23.6962 92.5647 21.8418C 95.0635 19.9832 96.7293 17.8144 96.7293 15.4402L 94.7293 15.4402ZM 47.8647 29.8804C 31.8776 29.8804 20.0396 27.8003 12.2367 24.8816C 8.33678 23.4263 5.52631 21.813 3.63054 20.0995C 1.77013 18.4254 1 16.8235 1 15.4402L -1 15.4402C -1 17.6008 0.197642 19.7009 2.2927 21.5862C 4.35242 23.4322 7.48513 25.236 11.536 26.7548C 19.6348 29.7842 31.7292 31.8804 47.8647 31.8804L 47.8647 29.8804ZM 1 15.4402C 1 14.9028 1.27565 14.2276 2.01549 13.4151C 2.77575 12.5737 3.85973 11.7576 5.31262 10.8976C 8.24764 9.15344 12.3386 7.4908 17.0915 6.01732C 26.617 3.06022 38.4348 0.996269 47.8647 1L 47.8647 -1C 38.2623 -0.996274 26.1478 1.11603 16.499 4.10712C 11.6648 5.60772 7.3581 7.36215 4.29228 9.17748C 2.74475 10.0972 1.42751 11.0965 0.536648 12.0686C -0.374633 13.0694 -1 14.2057 -1 15.4402L 1 15.4402ZM 47.8647 1C 64.5048 1 76.3361 3.36045 83.9686 6.41493C 87.7842 7.93805 90.4772 9.58606 92.2766 11.2503C 94.0549 12.8888 94.7293 14.3512 94.7293 15.4402L 96.7293 15.4402C 96.7293 13.5511 95.6017 11.5944 93.6317 9.77945C 91.6828 7.99028 88.6812 6.1505 84.7117 4.5581C 76.7741 1.38154 64.673 -0.999996 47.8647 -1L 47.8647 1Z"/>
<path id="path6_fill" d="M 32.0074 3C 24.5074 7 -0.492636 38.5 0.00739485 41C 0.507425 43.5 2.00739 50 18.0074 56C 34.0074 62 46.0074 58 48.0074 56C 50.0074 54 49.5074 23 56.0074 21C 62.5074 19 83.0074 30 83.0074 30C 83.0074 30 68.0074 6.99999 61.0074 3C 54.0074 -0.999996 39.5074 -1 32.0074 3Z"/>
<path id="path7_stroke" d="M 0.00739485 41L -0.482894 41.0981L 0.00739485 41ZM 61.0074 3L 61.2555 2.56588L 61.2555 2.56588L 61.0074 3ZM 83.0074 30L 82.771 30.4406L 83.4262 29.7269L 83.0074 30ZM 0.497684 40.9019C 0.504362 40.9096 0.494291 40.8973 0.519319 40.8023C 0.545749 40.6928 0.589104 40.5713 0.66185 40.4014C 0.810981 40.0509 1.04299 39.6107 1.36246 39.0665C 2.00558 37.9701 2.95853 36.5371 4.14946 34.8598C 6.53431 31.5006 9.83623 27.2175 13.394 22.8796C 16.952 18.5412 20.7522 14.1647 24.1348 10.6185C 27.5344 7.0545 30.4501 4.3972 32.2427 3.44117L 31.7721 2.55882C 29.8147 3.60279 26.7929 6.383 23.4112 9.92833C 20.0126 13.4916 16.1878 17.8963 12.6208 22.2454C 9.05355 26.595 5.73047 30.9057 3.33407 34.2809C 2.13437 35.9707 1.15763 37.44 0.499975 38.5604C 0.169055 39.1247 -0.0921012 39.6214 -0.257909 40.009C -0.342633 40.2081 -0.412191 40.4059 -0.451495 40.5625C -0.490483 40.7203 -0.520079 40.9122 -0.482894 41.0981L 0.497684 40.9019ZM 32.2427 3.44117C 35.8933 1.49418 41.3022 0.499999 46.6949 0.5C 52.0907 0.500001 57.3663 1.49526 60.7593 3.43412L 61.2555 2.56588C 57.6485 0.504738 52.1741 -0.499999 46.6949 -0.5C 41.2126 -0.500001 35.6215 0.505817 31.7721 2.55882L 32.2427 3.44117ZM 60.7593 3.43412C 62.4296 4.38852 64.6316 6.51731 67.0226 9.23641C 69.4035 11.9438 71.9217 15.1773 74.2305 18.2974C 76.5389 21.4168 78.6272 24.4091 80.1414 26.6258C 80.898 27.7334 81.5097 28.645 81.933 29.281C 82.1444 29.5986 82.3083 29.8466 82.4196 30.0157C 82.4752 30.1001 82.5174 30.1644 82.5459 30.2079C 82.5601 30.2296 82.5708 30.2459 82.578 30.2569C 82.5815 30.2623 82.5842 30.2664 82.586 30.2692C 82.5869 30.2705 82.5875 30.2715 82.588 30.2722C 82.5882 30.2725 82.5883 30.2728 82.5885 30.2729C 82.5885 30.2731 82.5886 30.2731 83.0074 30C 83.4262 29.7269 83.4261 29.7267 83.426 29.7265C 83.4259 29.7264 83.4257 29.7261 83.4254 29.7257C 83.425 29.725 83.4243 29.7239 83.4233 29.7224C 83.4215 29.7196 83.4187 29.7153 83.415 29.7097C 83.4077 29.6986 83.3968 29.6818 83.3824 29.6599C 83.3537 29.6161 83.3108 29.5508 83.2548 29.4657C 83.143 29.296 82.9778 29.0459 82.7654 28.7268C 82.3411 28.0894 81.7261 27.1728 80.9671 26.0617C 79.4501 23.8409 77.3509 20.8332 75.0343 17.7026C 72.7181 14.5726 70.1738 11.3062 67.7735 8.57608C 65.3832 5.85768 63.0853 3.61147 61.2555 2.56588L 60.7593 3.43412ZM 83.0074 30C 83.2438 29.5594 83.2437 29.5593 83.2435 29.5592C 83.2433 29.5591 83.243 29.559 83.2427 29.5588C 83.242 29.5585 83.241 29.5579 83.2397 29.5572C 83.2372 29.5559 83.2333 29.5538 83.2282 29.5511C 83.2182 29.5457 83.2031 29.5376 83.1833 29.5271C 83.1441 29.5062 83.0853 29.4751 83.009 29.4348C 82.8567 29.3544 82.6316 29.2363 82.3438 29.0873C 81.7693 28.7897 80.9389 28.3657 79.9242 27.8642C 77.8972 26.8625 75.1179 25.5436 72.1389 24.2892C 69.1608 23.0354 65.956 21.8361 63.0962 21.0791C 60.2597 20.329 57.6343 19.9763 55.8604 20.5221L 56.1544 21.4779C 57.6305 21.0237 60.0051 21.296 62.8405 22.0459C 65.6525 22.7889 68.7914 23.9646 71.7509 25.2108C 74.7094 26.4564 77.4613 27.7625 79.4812 28.7607C 80.49 29.2593 81.3119 29.679 81.8839 29.9752C 82.1694 30.1231 82.391 30.2394 82.5422 30.3191C 82.6175 30.3589 82.6747 30.3893 82.7135 30.4099C 82.7327 30.4201 82.7471 30.4278 82.7568 30.433C 82.7616 30.4356 82.7652 30.4375 82.7676 30.4388C 82.7688 30.4394 82.7696 30.4399 82.7702 30.4402C 82.7705 30.4403 82.7707 30.4404 82.7708 30.4405C 82.771 30.4406 82.771 30.4406 83.0074 30ZM 55.8604 20.5221C 54.8728 20.826 54.0865 21.6558 53.4483 22.7429C 52.816 23.8235 52.2705 25.2663 51.8149 26.8968C 50.909 30.146 50.2929 34.3102 49.8231 38.4435C 49.3535 42.5769 49.0251 46.7042 48.6898 49.9168C 48.5223 51.5217 48.3549 52.8855 48.1669 53.9141C 48.0738 54.4244 47.981 54.8297 47.8791 55.1471C 47.7737 55.4773 47.6873 55.613 47.6538 55.6464L 48.361 56.3535C 48.5775 56.137 48.7216 55.7961 48.8317 55.4515C 48.9454 55.0941 49.0532 54.6263 49.1506 54.0937C 49.3435 53.0363 49.5159 51.6346 49.6844 50.0206C 50.0209 46.7958 50.3488 42.673 50.8167 38.5564C 51.2844 34.4398 51.8871 30.3539 52.7781 27.1657C 53.2209 25.5774 53.7183 24.2546 54.3107 23.2492C 54.897 22.2504 55.517 21.674 56.1544 21.4779L 55.8604 20.5221ZM 47.6538 55.6464C 47.2379 56.0624 46.2038 56.6576 44.5654 57.2141C 42.9336 57.7689 40.8028 58.2564 38.21 58.5022C 33.0015 59 26.1141 58.5115 18.183 55.5318L 17.8318 56.4682C 25.9007 59.4885 33.0133 60 38.3048 59.4977C 40.962 59.2436 43.2062 58.7311 44.887 58.1609C 46.561 57.5924 47.7769 56.9376 48.361 56.3535L 47.6538 55.6464ZM 18.183 55.5318C 10.2298 52.5494 5.93241 49.4615 3.56527 46.8516C 1.21152 44.2564 0.738165 42.1043 0.497684 40.9019L -0.482894 41.0981C -0.223345 42.3957 0.303298 44.7436 2.82455 47.5234C 5.33239 50.2885 9.78503 53.4506 17.8318 56.4682L 18.183 55.5318Z"/>
<path id="path8_fill" d="M 5 0L 6.12257 3.45492L 9.75528 3.45492L 6.81636 5.59017L 7.93893 9.04508L 5 6.90983L 2.06107 9.04508L 3.18364 5.59017L 0.244718 3.45492L 3.87743 3.45492L 5 0Z"/>
</defs>
</svg>
